<svg width="1024" height="982" viewBox="0 0 1024 982" fill="none" xmlns="http://www.w3.org/2000/svg">
<path d="M1194.67 811.826C1185.98 846.128 1161.67 874.789 1125.07 897.233C1088.46 919.679 1039.59 935.887 981.849 945.283C866.369 964.073 715.52 955.595 556.684 915.372C397.848 875.15 261.145 810.81 168.527 739.322C122.218 703.578 86.9491 666.062 65.4386 628.899C43.9297 591.739 36.1923 554.964 44.8789 520.661C53.5655 486.359 77.8735 457.698 114.476 435.254C151.081 412.808 199.955 396.6 257.695 387.204C373.175 368.414 524.024 376.892 682.86 417.115C841.696 457.337 978.399 521.677 1071.02 593.165C1117.33 628.909 1152.6 666.425 1174.11 703.588C1195.61 740.748 1203.35 777.523 1194.67 811.826Z" stroke="url(#paint0_linear_149_9408)"/>
<path d="M1455.27 877.821C1442.63 927.733 1407.27 969.418 1354.05 1002.05C1300.83 1034.68 1229.79 1058.24 1145.88 1071.89C978.06 1099.2 758.855 1086.88 528.054 1028.43C297.254 969.984 98.6035 876.491 -35.9941 772.602C-103.294 720.656 -154.56 666.127 -185.833 612.099C-217.104 558.073 -228.368 504.58 -215.728 454.667C-203.088 404.755 -167.722 363.07 -114.507 330.439C-61.2891 297.807 9.75156 274.25 93.663 260.596C261.484 233.289 480.689 245.611 711.49 304.057C942.29 362.504 1140.94 455.997 1275.54 559.886C1342.84 611.832 1394.1 666.361 1425.38 720.389C1456.65 774.414 1467.91 827.908 1455.27 877.821Z" stroke="url(#paint1_linear_149_9408)"/>
<path d="M1772.38 958.123C1754.93 1027.03 1706.11 1084.56 1632.68 1129.59C1559.25 1174.62 1461.23 1207.12 1345.48 1225.95C1113.97 1263.62 811.585 1246.62 493.217 1166C174.849 1085.38 -99.1792 956.413 -284.858 813.096C-377.698 741.437 -448.431 666.205 -491.582 591.655C-534.732 517.107 -550.287 443.272 -532.837 374.365C-515.388 305.457 -466.566 247.924 -393.136 202.898C-319.704 157.871 -221.69 125.372 -105.933 106.536C125.577 68.8658 427.959 85.8654 746.327 166.487C1064.7 247.108 1338.72 376.075 1524.4 519.392C1617.24 591.051 1687.97 666.283 1731.13 740.833C1774.28 815.38 1789.83 889.216 1772.38 958.123Z" stroke="url(#paint2_linear_149_9408)"/>
<defs>
<linearGradient id="paint0_linear_149_9408" x1="84.6959" y1="500.795" x2="1080.76" y2="914.025" gradientUnits="userSpaceOnUse">
<stop stop-color="#484848"/>
<stop offset="0.491388" stop-color="#484848" stop-opacity="0.36"/>
<stop offset="1" stop-color="#484848"/>
</linearGradient>
<linearGradient id="paint1_linear_149_9408" x1="-157.657" y1="425.859" x2="1289.55" y2="1026.25" gradientUnits="userSpaceOnUse">
<stop stop-color="#484848"/>
<stop offset="0.491388" stop-color="#484848" stop-opacity="0.36"/>
<stop offset="1" stop-color="#484848"/>
</linearGradient>
<linearGradient id="paint2_linear_149_9408" x1="-452.555" y1="334.676" x2="1543.61" y2="1162.81" gradientUnits="userSpaceOnUse">
<stop stop-color="#484848"/>
<stop offset="0.491388" stop-color="#484848" stop-opacity="0.36"/>
<stop offset="1" stop-color="#484848"/>
</linearGradient>
</defs>
</svg>
