<svg width="22" height="20" viewBox="0 0 22 20" fill="none" xmlns="http://www.w3.org/2000/svg">
<path d="M1.80001 4.20002L6.00001 7.00002L10.186 1.14002C10.2785 1.01039 10.4006 0.904727 10.5422 0.831824C10.6838 0.75892 10.8408 0.720886 11 0.720886C11.1593 0.720886 11.3162 0.75892 11.4578 0.831824C11.5994 0.904727 11.7215 1.01039 11.814 1.14002L16 7.00002L20.2 4.20002C20.359 4.09427 20.5449 4.03623 20.7358 4.03276C20.9266 4.02929 21.1145 4.08053 21.2772 4.18044C21.4399 4.28035 21.5706 4.42474 21.6539 4.59656C21.7371 4.76837 21.7694 4.96042 21.747 5.15002L20.104 19.117C20.0753 19.3603 19.9584 19.5845 19.7754 19.7473C19.5923 19.9101 19.3559 20 19.111 20H2.88901C2.64407 20 2.40767 19.9101 2.22464 19.7473C2.0416 19.5845 1.92466 19.3603 1.89601 19.117L0.253007 5.14902C0.230807 4.9595 0.263293 4.76759 0.346628 4.59594C0.429964 4.42428 0.56067 4.28006 0.723318 4.18028C0.885967 4.08051 1.07377 4.02935 1.26455 4.03285C1.45533 4.03634 1.64113 4.09435 1.80001 4.20002ZM11 14C11.5304 14 12.0391 13.7893 12.4142 13.4142C12.7893 13.0392 13 12.5305 13 12C13 11.4696 12.7893 10.9609 12.4142 10.5858C12.0391 10.2107 11.5304 10 11 10C10.4696 10 9.96087 10.2107 9.58579 10.5858C9.21072 10.9609 9.00001 11.4696 9.00001 12C9.00001 12.5305 9.21072 13.0392 9.58579 13.4142C9.96087 13.7893 10.4696 14 11 14Z" fill="white"/>
</svg>
